<svg xmlns="http://www.w3.org/2000/svg" viewBox="0 0 120 120" style="enable-background:new 0 0 120 120" xml:space="preserve"><switch><g><path d="M30.9 120c-6.4 0-12.9-2.4-17.7-7.3l-1.8-1.7 99.5-99.5 1.7 1.7c9.8 9.8 9.8 25.7 0 35.5l-64 64c-4.8 4.9-11.3 7.3-17.7 7.3zm-12.4-9.2c7.9 6.2 19.4 5.6 26.7-1.6l64-64c7.3-7.3 7.8-18.8 1.6-26.7l-92.3 92.3z" fill="#ffff"/><path d="M84.2 45.1 69.3 30.2 99.5 0l14.9 14.9-30.2 30.2zm-7.9-14.9 7.9 7.9 23.2-23.2L99.5 7 76.3 30.2zM14.9 114.4 0 99.5l30.2-30.2 14.9 14.9-30.2 30.2zM7 99.5l7.9 7.9 23.2-23.2-7.9-7.9L7 99.5z" fill="#ffff"/></g></switch></svg>