<!-- icon666.com - MILLIONS vector ICONS FREE --><svg viewBox="0 0 32 32" xmlns="http://www.w3.org/2000/svg"><g id="_23_Edit" data-name="23 Edit"><path d="m28.6 4.17-.77-.77a3.075 3.075 0 0 0 -4.24 0l-4.6 4.6h-13.99a3.009 3.009 0 0 0 -3 3v16a3.009 3.009 0 0 0 3 3h16a3.009 3.009 0 0 0 3-3v-13.99l4.6-4.6a3 3 0 0 0 0-4.24zm-2.18.64.77.77a1.008 1.008 0 0 1 0 1.42l-.353.353-2.19-2.19.353-.353a1.047 1.047 0 0 1 1.42 0zm-3.188 1.768 2.19 2.19-11.522 11.523-2.19-2.19zm-12.663 13.211 1.542 1.542-2.831 1.079zm11.431 7.211a1 1 0 0 1 -1 1h-16a1 1 0 0 1 -1-1v-16a1 1 0 0 1 1-1h11.99l-7.39 7.388-.01.012-.008.012-.012.012a.831.831 0 0 0 -.19.26l-3.03 6.136a1 1 0 0 0 1.26 1.37l6.62-2.53a.929.929 0 0 0 .35-.23l.012-.012.012-.008.008-.012 7.388-7.388z" fill="#000000" style="fill: rgb(133, 13, 200);"></path></g></svg>