<!-- icon666.com - MILLIONS vector ICONS FREE --><svg viewBox="0 -22 476.44406 476" xmlns="http://www.w3.org/2000/svg"><path d="m444.632812 57.085938c-19.15625 1.847656-33.480468 18.414062-32.542968 37.636718l1.4375 58.9375c-15.757813 1.566406-29.550782 11.257813-36.367188 25.550782l-21.539062 45.222656c-3.347656 7.011718-8.234375 13.183594-14.289063 18.050781l-4.476562 3.589844c-22.765625 18.167969-35.453125 46.140625-34.117188 75.234375l-8.800781-4.1875c-3.988281-1.902344-8.765625-.207032-10.664062 3.78125l-23.613282 49.582031c-1.898437 3.992187-.207031 8.765625 3.78125 10.664063l108.820313 51.824218c1.914062.914063 4.113281 1.03125 6.113281.320313 2-.710938 3.636719-2.183594 4.546875-4.101563l23.617187-49.589844c1.898438-3.988281.207032-8.761718-3.78125-10.660156l-4.644531-2.210937-1.160156-15.511719c-.464844-6.058594 1.445313-12.0625 5.324219-16.742188l56.351562-68.191406c.113282-.136718.222656-.277344.328125-.421875 11.617188-16.21875 17.742188-35.726562 17.480469-55.671875-.007812-.378906-.042969-.757812-.101562-1.132812l-23.023438-145.261719c-.664062-4.179687-4.46875-7.121094-8.679688-6.710937zm-72.714843 358-94.371094-44.945313 16.734375-35.140625 94.371094 44.945312zm74.203125-158.78125-56.175782 67.980468c-6.519531 7.859375-9.726562 17.945313-8.949218 28.125l.480468 6.394532-61.855468-29.457032c-4.394532-26.789062 6.023437-53.863281 27.242187-70.792968l4.476563-3.589844c7.9375-6.378906 14.339844-14.464844 18.730468-23.652344l21.535157-45.222656c5.632812-11.78125 18.386719-18.414063 31.269531-16.257813l-31.480469 66.105469c-1.871093 3.984375-.175781 8.730469 3.800781 10.625 3.972657 1.890625 8.730469.21875 10.644532-3.746094l35.398437-74.332031c1.898438-3.992187.207031-8.765625-3.785156-10.664063-2.535156-1.203124-5.175781-2.167968-7.890625-2.886718l-1.480469-60.699219c0-.070313 0-.140625-.007812-.207031-.410157-7.875 3.832031-15.257813 10.835937-18.875l21.535156 135.832031c.09375 16.238281-4.914062 32.089844-14.324218 45.320313zm0 0" fill="#000000" style="fill: rgb(241, 241, 241);"></path><path d="m17.816406 266.285156 56.351563 68.191406c3.878906 4.679688 5.789062 10.683594 5.324219 16.742188l-1.160157 15.511719-4.644531 2.210937c-3.988281 1.898438-5.679688 6.671875-3.78125 10.660156l23.617188 49.589844c.910156 1.917969 2.546874 3.390625 4.546874 4.101563 2 .710937 4.199219.59375 6.117188-.320313l108.816406-51.824218c3.988282-1.898438 5.679688-6.671876 3.78125-10.664063l-23.617187-49.585937c-1.898438-3.988282-6.671875-5.683594-10.660157-3.78125l-8.800781 4.1875c1.332031-29.09375-11.351562-57.066407-34.117187-75.234376l-4.476563-3.589843c-6.058593-4.867188-10.941406-11.035157-14.292969-18.046875l-21.539062-45.222656c-6.816406-14.292969-20.609375-23.984376-36.367188-25.550782l1.441407-58.9375c.9375-19.21875-13.386719-35.789062-32.542969-37.636718-4.210938-.410157-8.015625 2.53125-8.679688 6.710937l-23.023437 145.261719c-.0625.375-.09375.753906-.1015625 1.132812-.2617185 19.945313 5.8632815 39.453125 17.4804685 55.671875.105469.144531.214844.285157.328125.421875zm181.082032 103.859375-94.371094 44.941407-16.734375-35.140626 94.371093-44.945312zm-161.363282-294.996093c7.003906 3.617187 11.246094 11.003906 10.835938 18.875 0 .070312-.003906.140624-.007813.210937l-1.480469 60.699219c-2.714843.714844-5.359374 1.679687-7.894531 2.886718-3.988281 1.898438-5.683593 6.675782-3.78125 10.664063l35.398438 74.335937c1.914062 3.964844 6.671875 5.636719 10.644531 3.742188 3.972656-1.890625 5.671875-6.636719 3.800781-10.621094l-31.480469-66.109375c12.882813-2.160156 25.640626 4.472657 31.269532 16.257813l21.539062 45.222656c4.390625 9.1875 10.789063 17.273438 18.726563 23.652344l4.476562 3.589844c21.21875 16.929687 31.636719 44.003906 27.242188 70.792968l-61.855469 29.457032.480469-6.394532c.777343-10.179687-2.429688-20.265625-8.945313-28.125l-56.179687-67.980468c-9.40625-13.230469-14.417969-29.082032-14.320313-45.320313zm0 0" fill="#000000" style="fill: rgb(241, 241, 241);"></path><path d="m333.628906 172.601562c3.316406-1.058593 5.574219-4.132812 5.59375-7.617187v-126.796875c-.019531-3.480469-2.277344-6.554688-5.59375-7.613281l-92.925781-29.964844c-1.601563-.515625-3.324219-.515625-4.925781 0l-92.953125 29.960937c-3.320313 1.058594-5.578125 4.132813-5.601563 7.617188v126.796875c.019532 3.484375 2.277344 6.554687 5.59375 7.617187l92.925782 29.960938c.796874.253906 1.632812.382812 2.46875.382812.84375 0 1.683593-.128906 2.484374-.382812zm-87.40625 11.363282v-110l77-24.800782v110zm-8-167.335938 66.839844 21.558594-66.839844 21.550781-66.839844-21.550781zm-85 32.539063 77 24.800781v110l-77-24.800781zm0 0" fill="#000000" style="fill: rgb(241, 241, 241);"></path></svg>