<!-- icon666.com - MILLIONS vector ICONS FREE --><svg id="Capa_1" enable-background="new 0 0 402.361 402.361" viewBox="0 0 402.361 402.361" xmlns="http://www.w3.org/2000/svg"><g><g id="Layer_x0020_1_16_"><g><path d="m4.191 52.774h393.978c2.315 0 4.191 1.877 4.191 4.191v234.257c0 2.315-1.877 4.191-4.191 4.191h-393.978c-2.315 0-4.191-1.877-4.191-4.191v-234.257c0-2.314 1.877-4.191 4.191-4.191zm389.787 8.383h-385.595v225.874h385.595z" fill="#000000" style="fill: rgb(241, 241, 241);"></path></g><g><path d="m204.501 289.398c-.101-.132-.211-.259-.33-.38l-.067-.067c-.311-.304-.66-.552-1.034-.741l-.067-.034-.012-.006-.053-.025-.037-.017c-.493-.223-1.018-.344-1.543-.366h-.007l-.075-.002-.041-.001h-.053-.053l-.041.001-.075.002h-.007c-.525.022-1.05.143-1.543.366l-.037.017-.053.025-.012.006-.067.034c-.374.189-.723.437-1.034.741l-.067.067c-.119.121-.229.248-.33.38l-41.208 51.806h-30.914c-2.315 0-4.191 1.877-4.191 4.191s1.877 4.191 4.191 4.191h150.885c2.315 0 4.191-1.877 4.191-4.191s-1.877-4.191-4.191-4.191h-30.914zm-37.16 51.806 33.839-42.542 33.839 42.542z" fill="#000000" style="fill: rgb(241, 241, 241);"></path></g><g><path d="m199.882 259.374c2.315 0 4.191-1.877 4.191-4.191s-1.877-4.191-4.191-4.191h-157.987v-157.988c0-2.315-1.877-4.191-4.191-4.191-2.315 0-4.191 1.877-4.191 4.191v162.178c0 2.315 1.877 4.191 4.191 4.191z" fill="#000000" style="fill: rgb(241, 241, 241);"></path></g><g><path d="m34.413 252.596c-1.428 1.817-1.114 4.449.704 5.878s4.449 1.113 5.878-.704l35.529-45.147 30.753 14.87-.004.009c2.084 1.007 4.59.135 5.598-1.949.298-.617.432-1.271.418-1.912l2.668-49.698 42.431-21.158.004.002c.891-.444 1.553-1.162 1.938-2.002l26.074-45.161c1.148-1.998.459-4.549-1.539-5.697s-4.549-.459-5.697 1.539l-25.618 44.373-43.347 21.615c-1.387.622-2.387 1.979-2.474 3.602l.01.012-2.478 46.163-27.863-13.472c-1.774-1.019-4.074-.61-5.377 1.045l.003.005z" fill="#000000" style="fill: rgb(241, 241, 241);"></path></g><g><path d="m328.618 115.842h36.039c2.315 0 4.191 1.877 4.191 4.191v135.148c0 2.315-1.877 4.191-4.191 4.191h-36.039c-2.315 0-4.191-1.877-4.191-4.191v-135.147c0-2.315 1.876-4.192 4.191-4.192zm31.848 8.383h-27.657v126.766h27.657z" fill="#000000" style="fill: rgb(241, 241, 241);"></path></g><g><path d="m278.546 143.435h36.039c2.315 0 4.191 1.877 4.191 4.191v107.556c0 2.315-1.877 4.191-4.191 4.191h-36.039c-2.315 0-4.191-1.877-4.191-4.191v-107.556c0-2.314 1.876-4.191 4.191-4.191zm31.848 8.382h-27.657v99.173h27.657z" fill="#000000" style="fill: rgb(241, 241, 241);"></path></g><g><path d="m228.473 179.475h36.039c2.315 0 4.191 1.877 4.191 4.191v71.516c0 2.315-1.877 4.191-4.191 4.191h-36.039c-2.315 0-4.191-1.877-4.191-4.191v-71.516c0-2.314 1.877-4.191 4.191-4.191zm31.848 8.383h-27.657v63.134h27.657z" fill="#000000" style="fill: rgb(241, 241, 241);"></path></g></g></g></svg>