<!-- icon666.com - MILLIONS vector ICONS FREE --><svg id="Capa_1" enable-background="new 0 0 488.508 488.508" viewBox="0 0 488.508 488.508" xmlns="http://www.w3.org/2000/svg"><g fill="rgb(0,0,0)"><path d="m244.254 26.752c-25.589 0-46.525 18.61-48.851 44.198 0 4.652 2.326 9.305 6.979 9.305h81.418c4.652 0 9.305-4.652 6.979-9.305-2.327-25.589-20.936-44.198-46.525-44.198z" fill="rgb(0,0,0)" style="fill: rgb(133, 13, 200);"></path><path d="m476.877 89.56h-44.198-376.849-44.199c-6.979 0-11.631 4.652-11.631 11.631s4.652 11.631 11.631 11.631h34.893l67.461 339.63c0 4.652 6.979 9.305 11.631 9.305h234.949c4.652 0 9.305-4.652 11.631-9.305l67.461-339.629h37.22c6.979 0 11.631-4.652 11.631-11.631s-4.652-11.632-11.631-11.632zm-281.474 321.019c0 6.979-4.652 11.631-11.631 11.631s-11.631-4.652-11.631-11.631v-172.14c0-6.979 4.652-11.631 11.631-11.631s11.631 4.652 11.631 11.631zm60.482-60.481c0 6.979-4.652 11.631-11.631 11.631s-11.631-4.652-11.631-11.631v-172.141c0-6.979 4.652-11.631 11.631-11.631s11.631 4.652 11.631 11.631zm55.83 60.481c0 6.979-4.652 11.631-11.631 11.631s-11.631-4.652-11.631-11.631v-172.14c0-6.979 4.652-11.631 11.631-11.631s11.631 4.652 11.631 11.631z" fill="rgb(0,0,0)" style="fill: rgb(133, 13, 200);"></path></g><g></g><g></g><g></g><g></g><g></g><g></g><g></g><g></g><g></g><g></g><g></g><g></g><g></g><g></g><g></g></svg>