<!-- icon666.com - MILLIONS vector ICONS FREE --><svg id="Layer_1" enable-background="new 0 0 64 64" viewBox="0 0 64 64" xmlns="http://www.w3.org/2000/svg"><path d="m58 0h-52c-1.104 0-2 .896-2 2v12c0 .533.213 1.044.591 1.419l19.409 19.269v27.312c0 .737.406 1.415 1.056 1.764.296.158.62.236.944.236.388 0 .775-.113 1.109-.336l12-8c.557-.371.891-.995.891-1.664v-19.312l19.409-19.27c.378-.374.591-.885.591-1.418v-12c0-1.104-.896-2-2-2zm-2 4v2h-48v-2zm-19.409 28.437c-.378.375-.591.885-.591 1.418v19.075l-8 5.333v-24.408c0-.533-.213-1.044-.591-1.419l-19.409-19.269v-3.167h48v3.167z" fill="#000000" style="fill: rgb(133, 13, 200);"></path></svg>