<!-- icon666.com - MILLIONS vector ICONS FREE --><svg viewBox="0 0 384 384" xmlns="http://www.w3.org/2000/svg"><path d="m304 32h-98.800781c-6.605469-18.617188-24.34375-32-45.199219-32s-38.59375 13.382812-45.199219 32h-114.800781v352h384v-352zm-144 0c8.824219 0 16 7.175781 16 16s-7.175781 16-16 16-16-7.175781-16-16 7.175781-16 16-16zm-128 32h82.800781c6.605469 18.617188 24.34375 32 45.199219 32s38.59375-13.382812 45.199219-32h82.800781v192h-96v96h-160zm249.367188 224-57.367188 57.375v-57.375zm70.632812-224v288h-89.375l57.375-57.382812v-230.617188zm0 0" fill="#000000" style="fill: rgb(241, 241, 241);"></path><path d="m64 128h176v32h-176zm0 0" fill="#000000" style="fill: rgb(241, 241, 241);"></path><path d="m64 192h160v32h-160zm0 0" fill="#000000" style="fill: rgb(241, 241, 241);"></path><path d="m64 256h96v32h-96zm0 0" fill="#000000" style="fill: rgb(241, 241, 241);"></path></svg>