<!-- icon666.com - MILLIONS vector ICONS FREE --><svg id="Layer_2" viewBox="0 0 46.41 46.24" xmlns="http://www.w3.org/2000/svg"><g id="Søg"><path d="m41.33 5.08c-6.78-6.78-17.8-6.78-24.58 0-6 6-6.68 15.33-2.05 22.09l-13.8 13.8c-.58.58-.9 1.36-.9 2.18s.32 1.6.9 2.18c.58.58 1.36.9 2.18.9s1.6-.32 2.18-.9l13.77-13.77c2.99 2.11 6.49 3.18 10 3.18 4.45 0 8.9-1.69 12.29-5.08 6.78-6.78 6.78-17.8 0-24.58zm-37.48 38.84c-.41.41-1.12.41-1.53 0-.21-.2-.32-.48-.32-.76s.11-.56.32-.76l13.62-13.62c.26.3.52.61.81.89.23.23.47.43.71.64zm36.06-15.67c-5.51 5.51-14.18 5.94-20.2 1.33l-2.88-2.88c-4.61-6.02-4.17-14.7 1.33-20.2 3-3 6.94-4.5 10.88-4.5s7.88 1.5 10.88 4.5c6 6 6 15.75 0 21.75z" fill="#000000" style="fill: rgb(133, 13, 200);"></path></g></svg>